<?xml version='1.0' encoding='iso-8859-1'?>
<!DOCTYPE svg PUBLIC '-//W3C//DTD SVG 1.1//EN' 'http://www.w3.org/Graphics/SVG/1.1/DTD/svg11.dtd'>
<svg version="1.1" xmlns="http://www.w3.org/2000/svg" viewBox="0 0 297 297" xmlns:xlink="http://www.w3.org/1999/xlink" enable-background="new 0 0 297 297">
  <g>
    <path d="m84.387,135.315c-29.718,0-53.895,24.178-53.895,53.896 0,29.717 24.178,53.895 53.895,53.895s53.896-24.178 53.896-53.895c-0.001-29.719-24.179-53.896-53.896-53.896zm0,88.013c-18.812,0-34.118-15.305-34.118-34.117s15.306-34.119 34.118-34.119 34.118,15.307 34.118,34.119-15.306,34.117-34.118,34.117z"/>
    <path d="m84.387,16.152c-46.532,0-84.387,37.856-84.387,84.387 0,15.861 4.34,31.063 12.604,44.371-7.982,12.887-12.604,28.061-12.604,44.301 0,46.531 37.855,84.387 84.387,84.387 46.531,0 84.387-37.855 84.387-84.387 0-16.24-4.622-31.414-12.604-44.301 8.264-13.309 12.604-28.51 12.604-44.371-0.001-46.531-37.856-84.387-84.387-84.387zm0,19.78c35.625,0 64.608,28.982 64.608,64.607 0,9.754-2.146,19.18-6.267,27.789-15.166-14.541-35.721-23.504-58.342-23.504s-43.176,8.963-58.342,23.504c-4.12-8.609-6.267-18.035-6.267-27.789 0.001-35.625 28.985-64.607 64.61-64.607zm0,217.886c-35.625-2.84217e-14-64.608-28.982-64.608-64.607s28.983-64.609 64.608-64.609 64.608,28.984 64.608,64.609-28.983,64.607-64.608,64.607z"/>
    <path d="m296.039,41.172c1.459-3.065 1.246-6.664-0.566-9.533-1.813-2.869-4.968-4.609-8.361-4.609h-108.12c-3.393,0-6.549,1.74-8.36,4.609-1.813,2.869-2.026,6.469-0.567,9.533l38.448,80.74-8.234,125.705c-0.576,8.795 2.366,17.119 8.283,23.436 5.916,6.316 14.028,9.795 22.843,9.795h1.978c8.814,0 16.928-3.479 22.844-9.795 5.917-6.316 8.858-14.641 8.282-23.436l-8.076-123.287c0.016-0.031 0.037-0.059 0.053-0.092l39.553-83.066zm-42.821,43.92l8.693-38.283h9.538l-18.231,38.283zm-14.234,9.098v-47.381h10.759l-10.759,47.381zm-11.867,1.447l-11.087-48.828h11.087v48.828zm-23.255-48.828l8.393,36.961-17.602-36.961h9.209zm37.928,210.724c-2.137,2.279-5.124,3.537-8.409,3.537h-1.978c-3.285,0-6.272-1.258-8.408-3.537-2.139-2.283-3.197-5.346-2.982-8.625l7.797-119.033h9.165l7.797,119.033c0.214,3.28-0.844,6.342-2.982,8.625z"/>
  </g>
</svg>
